<svg width="177" height="100" viewBox="0 0 400 100" fill="none" xmlns="http://www.w3.org/2000/svg">
<path fill="#101317" opacity="1.000000" stroke="none"
	d="
M184.000000,69.000000 
	C122.666672,69.000000 61.833347,69.000000 1.000016,69.000000 
	C1.000011,46.333344 1.000011,23.666687 1.000005,1.000022 
	C86.999977,1.000015 172.999954,1.000015 258.999939,1.000008 
	C258.999969,23.666643 258.999969,46.333286 259.000000,68.999969 
	C234.166672,69.000000 209.333328,69.000000 184.000000,69.000000 
M64.978516,42.479214 
	C64.976425,37.156677 65.093002,31.830797 64.943100,26.512428 
	C64.742409,19.392311 58.585842,13.197812 51.457928,13.063928 
	C43.144424,12.907774 34.823349,12.904438 26.510019,13.065320 
	C19.390038,13.203105 13.197434,19.415661 13.063828,26.544384 
	C12.908014,34.857903 12.904188,43.178978 13.065420,51.492294 
	C13.203501,58.611927 19.417139,64.802933 26.546700,64.936272 
	C34.860229,65.091759 43.181305,65.096069 51.494610,64.934479 
	C58.613907,64.796097 64.694534,58.579823 64.957077,51.451088 
	C65.054962,48.793362 64.976501,46.129143 64.978516,42.479214 
M163.996750,40.337479 
	C164.364243,38.233528 164.347031,35.962486 165.174164,34.058178 
	C167.318314,29.121584 173.652512,28.055563 176.456360,32.436737 
	C178.530014,35.676979 180.690033,35.430000 183.536804,34.778652 
	C181.736084,26.821331 176.852783,23.687223 168.420044,24.973536 
	C161.487106,26.031075 157.579422,32.144161 158.020889,41.241772 
	C158.411774,49.297104 163.481842,54.615353 171.028625,54.886242 
	C177.796448,55.129173 182.504074,51.236458 183.293961,43.962292 
	C181.286682,44.418411 178.699738,44.233055 177.919403,45.331318 
	C175.744080,48.392982 173.320068,50.133934 169.599167,49.164806 
	C165.577744,48.117409 164.523682,44.786289 163.996750,40.337479 
M227.958405,51.207867 
	C227.945892,47.042721 228.153656,42.862114 227.862671,38.716515 
	C227.531830,34.002968 224.327774,31.831018 218.603928,31.948193 
	C212.854507,32.065891 210.650833,33.804527 210.126770,39.485092 
	C212.354401,38.690598 214.280197,38.161304 216.067261,37.332737 
	C219.507645,35.737610 221.489746,36.839951 221.580719,40.501259 
	C218.652252,41.001755 215.444839,40.923901 212.914124,42.194195 
	C211.113342,43.098099 209.235519,45.800156 209.201523,47.731560 
	C209.166489,49.722195 211.117142,53.291065 212.558334,53.483910 
	C217.487381,54.143459 222.574661,53.633423 227.599472,53.493340 
	C227.729553,53.489712 227.835159,52.608532 227.958405,51.207867 
M111.585594,36.673996 
	C112.631271,37.670017 113.676949,38.666042 115.448776,40.353729 
	C111.316582,40.943253 108.673035,41.119637 106.134430,41.731464 
	C102.666641,42.567249 100.580170,44.789288 101.059502,48.576595 
	C101.564407,52.565941 104.314713,54.282421 108.016472,54.260925 
	C111.923950,54.238235 115.828850,53.773331 120.001266,53.483078 
	C120.001266,48.521175 120.154770,43.537865 119.955589,38.568691 
	C119.777161,34.117188 116.658333,31.908161 111.198746,31.949167 
	C105.267540,31.993719 102.788307,33.883068 102.364449,39.573006 
	C105.385834,38.533192 108.044868,37.618080 111.585594,36.673996 
M186.938843,26.755247 
	C186.938843,35.696262 186.938843,44.637276 186.938843,53.730774 
	C188.906937,53.730774 190.455750,53.730774 192.379807,53.730774 
	C192.379807,49.834686 192.188278,46.191170 192.444458,42.579407 
	C192.627426,39.999905 192.804947,36.991066 196.613358,36.922043 
	C200.592804,36.849922 200.508835,39.952145 200.655823,42.515213 
	C200.870636,46.260815 200.711075,50.027893 200.711075,54.078484 
	C202.944870,53.940933 204.487045,53.845974 206.018982,53.751640 
	C206.018982,48.406368 206.173660,43.579762 205.974533,38.767796 
	C205.783798,34.158501 203.211105,31.810719 198.599350,32.017715 
	C196.587936,32.107998 194.609665,32.937138 192.143784,33.547752 
	C192.143784,30.447279 192.143784,27.386221 192.143784,23.031267 
	C189.827408,24.268686 188.388550,25.037331 186.938843,26.755247 
M95.409836,30.073259 
	C96.864525,30.001751 98.319206,29.930243 100.032127,29.846041 
	C99.934586,28.150177 99.854424,26.756380 99.775391,25.382401 
	C93.489540,25.382401 87.591393,25.382401 81.184746,25.382401 
	C81.184746,30.314642 81.184746,34.937027 81.184746,39.559414 
	C81.184746,44.314342 81.184746,49.069271 81.184746,53.785599 
	C83.503136,53.785599 85.097168,53.785599 87.061226,53.785599 
	C87.061226,50.127476 87.061226,46.696678 87.061226,42.755501 
	C91.158493,42.755501 94.892113,42.755501 98.971916,42.755501 
	C98.881042,40.848587 98.815887,39.481270 98.729218,37.662529 
	C94.606468,37.662529 90.873993,37.662529 87.293747,37.662529 
	C87.293747,34.917526 87.293747,32.649704 87.293747,30.073341 
	C89.860802,30.073341 92.161835,30.073341 95.409836,30.073259 
M140.609909,44.347603 
	C136.710251,42.477802 132.810577,40.608006 128.542938,38.561764 
	C132.785309,32.542015 136.881958,42.094727 140.664291,38.169384 
	C139.349014,32.949245 136.808182,31.416897 130.284103,31.982193 
	C126.575577,32.303528 123.603760,34.115021 123.233711,37.830261 
	C122.722549,42.962303 126.631630,44.468594 130.844070,45.250641 
	C131.165970,45.310406 131.496857,45.433098 131.773376,45.606541 
	C132.937088,46.336445 134.111557,47.059189 135.182236,47.910191 
	C135.278168,47.986443 134.685791,49.426662 134.363068,49.447186 
	C132.799164,49.546642 131.163651,49.606972 129.656311,49.248676 
	C127.518547,48.740540 125.470749,47.853931 122.700417,46.891365 
	C124.358810,53.466373 128.172440,55.446274 134.568802,54.262691 
	C139.921997,53.272141 141.473282,51.033012 140.609909,44.347603 
M151.585495,31.832781 
	C151.284546,30.267239 150.983597,28.701698 150.681519,27.130260 
	C149.013733,27.130260 147.543991,27.130260 147.204453,27.130260 
	C145.428513,29.312626 143.969925,30.740913 142.992859,32.445248 
	C142.426620,33.432980 142.257111,35.838223 142.550980,35.952324 
	C147.838028,38.005104 145.224548,42.457405 145.428680,45.771675 
	C145.909088,53.571182 147.337646,54.914822 156.270401,53.491653 
	C155.443558,52.053421 154.782791,50.873062 154.092285,49.710377 
	C153.111694,48.059250 151.608459,46.525448 151.238968,44.751850 
	C150.743027,42.371231 151.116089,39.809574 151.116089,38.513702 
	C153.161942,36.741764 154.450851,35.625427 155.739761,34.509083 
	C154.626389,33.682789 153.513016,32.856491 151.585495,31.832781 
M230.171127,36.237011 
	C231.116440,37.441372 232.549484,38.523632 232.888931,39.879662 
	C233.359329,41.758762 233.000198,43.843685 233.009308,45.840420 
	C233.044113,53.460518 235.043808,55.034451 243.367966,53.459541 
	C242.823639,52.169853 242.537979,50.131115 241.781937,49.938480 
	C238.577393,49.121967 238.849411,46.869869 238.893967,44.527195 
	C238.938019,42.211296 238.903595,39.893906 238.903595,37.577168 
	C239.183533,37.771896 239.463486,37.966625 239.743423,38.161354 
	C241.049713,36.575153 242.355988,34.988953 243.662277,33.402752 
	C243.777298,32.743088 243.892303,32.083427 244.007324,31.423763 
	C236.939529,34.263592 239.857849,28.812368 238.334290,27.231346 
	C236.564362,27.231346 234.958008,27.231346 233.860931,27.231346 
	C232.434860,30.226908 231.208405,32.803169 230.171127,36.237011 
z"/>
<path fill="#2B2F34" opacity="1.000000" stroke="none" 
	d="
M64.978485,42.973549 
	C64.976501,46.129143 65.054962,48.793362 64.957077,51.451088 
	C64.694534,58.579823 58.613907,64.796097 51.494610,64.934479 
	C43.181305,65.096069 34.860229,65.091759 26.546700,64.936272 
	C19.417139,64.802933 13.203501,58.611927 13.065420,51.492294 
	C12.904188,43.178978 12.908014,34.857903 13.063828,26.544384 
	C13.197434,19.415661 19.390038,13.203105 26.510019,13.065320 
	C34.823349,12.904438 43.144424,12.907774 51.457928,13.063928 
	C58.585842,13.197812 64.742409,19.392311 64.943100,26.512428 
	C65.093002,31.830797 64.976425,37.156677 64.978485,42.973549 
M18.948402,41.442516 
	C18.949537,43.606300 18.981251,45.770603 18.944807,47.933754 
	C18.886786,51.377663 20.473577,53.315830 23.986601,53.327629 
	C34.139454,53.361732 44.292530,53.346630 54.445469,53.325214 
	C57.711163,53.318325 59.359974,51.579556 59.373737,48.357929 
	C59.400757,42.033638 59.412880,35.708614 59.342884,29.384874 
	C59.309433,26.363125 57.611305,24.796991 54.610752,24.789776 
	C44.291515,24.764961 33.971943,24.744350 23.653011,24.806883 
	C20.349827,24.826899 18.932993,26.800753 18.948244,29.981735 
	C18.965002,33.476982 18.949722,36.972385 18.948402,41.442516 
z"/>
<path fill="#D9E0E7" opacity="1.000000" stroke="none" 
	d="
M164.004944,40.755795 
	C164.523682,44.786289 165.577744,48.117409 169.599167,49.164806 
	C173.320068,50.133934 175.744080,48.392982 177.919403,45.331318 
	C178.699738,44.233055 181.286682,44.418411 183.293961,43.962292 
	C182.504074,51.236458 177.796448,55.129173 171.028625,54.886242 
	C163.481842,54.615353 158.411774,49.297104 158.020889,41.241772 
	C157.579422,32.144161 161.487106,26.031075 168.420044,24.973536 
	C176.852783,23.687223 181.736084,26.821331 183.536804,34.778652 
	C180.690033,35.430000 178.530014,35.676979 176.456360,32.436737 
	C173.652512,28.055563 167.318314,29.121584 165.174164,34.058178 
	C164.347031,35.962486 164.364243,38.233528 164.004944,40.755795 
z"/>
<path fill="#DAE2E9" opacity="1.000000" stroke="none" 
	d="
M227.955292,51.672237 
	C227.835159,52.608532 227.729553,53.489712 227.599472,53.493340 
	C222.574661,53.633423 217.487381,54.143459 212.558334,53.483910 
	C211.117142,53.291065 209.166489,49.722195 209.201523,47.731560 
	C209.235519,45.800156 211.113342,43.098099 212.914124,42.194195 
	C215.444839,40.923901 218.652252,41.001755 221.580719,40.501259 
	C221.489746,36.839951 219.507645,35.737610 216.067261,37.332737 
	C214.280197,38.161304 212.354401,38.690598 210.126770,39.485092 
	C210.650833,33.804527 212.854507,32.065891 218.603928,31.948193 
	C224.327774,31.831018 227.531830,34.002968 227.862671,38.716515 
	C228.153656,42.862114 227.945892,47.042721 227.955292,51.672237 
M221.664246,47.767689 
	C222.623093,42.601898 218.736267,45.464275 217.023788,45.223011 
	C216.358948,45.129341 215.439484,46.843178 214.636002,47.733635 
	C215.619598,48.477226 216.562363,49.742153 217.597824,49.823215 
	C218.716263,49.910770 219.921310,48.891815 221.664246,47.767689 
z"/>
<path fill="#DCE3EA" opacity="1.000000" stroke="none" 
	d="
M111.144753,36.688484 
	C108.044868,37.618080 105.385834,38.533192 102.364449,39.573006 
	C102.788307,33.883068 105.267540,31.993719 111.198746,31.949167 
	C116.658333,31.908161 119.777161,34.117188 119.955589,38.568691 
	C120.154770,43.537865 120.001266,48.521175 120.001266,53.483078 
	C115.828850,53.773331 111.923950,54.238235 108.016472,54.260925 
	C104.314713,54.282421 101.564407,52.565941 101.059502,48.576595 
	C100.580170,44.789288 102.666641,42.567249 106.134430,41.731464 
	C108.673035,41.119637 111.316582,40.943253 115.448776,40.353729 
	C113.676949,38.666042 112.631271,37.670017 111.144753,36.688484 
M106.958344,48.209450 
	C111.205597,51.024338 113.136024,50.215454 114.246597,43.714748 
	C111.260406,45.199654 109.063988,46.291832 106.958344,48.209450 
z"/>
<path fill="#DFE7EE" opacity="1.000000" stroke="none" 
	d="
M186.944275,26.280611 
	C188.388550,25.037331 189.827408,24.268686 192.143784,23.031267 
	C192.143784,27.386221 192.143784,30.447279 192.143784,33.547752 
	C194.609665,32.937138 196.587936,32.107998 198.599350,32.017715 
	C203.211105,31.810719 205.783798,34.158501 205.974533,38.767796 
	C206.173660,43.579762 206.018982,48.406368 206.018982,53.751640 
	C204.487045,53.845974 202.944870,53.940933 200.711075,54.078484 
	C200.711075,50.027893 200.870636,46.260815 200.655823,42.515213 
	C200.508835,39.952145 200.592804,36.849922 196.613358,36.922043 
	C192.804947,36.991066 192.627426,39.999905 192.444458,42.579407 
	C192.188278,46.191170 192.379807,49.834686 192.379807,53.730774 
	C190.455750,53.730774 188.906937,53.730774 186.938843,53.730774 
	C186.938843,44.637276 186.938843,35.696262 186.944275,26.280611 
z"/>
<path fill="#D7DFE6" opacity="1.000000" stroke="none" 
	d="
M94.936356,30.073299 
	C92.161835,30.073341 89.860802,30.073341 87.293747,30.073341 
	C87.293747,32.649704 87.293747,34.917526 87.293747,37.662529 
	C90.873993,37.662529 94.606468,37.662529 98.729218,37.662529 
	C98.815887,39.481270 98.881042,40.848587 98.971916,42.755501 
	C94.892113,42.755501 91.158493,42.755501 87.061226,42.755501 
	C87.061226,46.696678 87.061226,50.127476 87.061226,53.785599 
	C85.097168,53.785599 83.503136,53.785599 81.184746,53.785599 
	C81.184746,49.069271 81.184746,44.314342 81.184746,39.559414 
	C81.184746,34.937027 81.184746,30.314642 81.184746,25.382401 
	C87.591393,25.382401 93.489540,25.382401 99.775391,25.382401 
	C99.854424,26.756380 99.934586,28.150177 100.032127,29.846041 
	C98.319206,29.930243 96.864525,30.001751 94.936356,30.073299 
z"/>
<path fill="#DAE2E9" opacity="1.000000" stroke="none" 
	d="
M140.763275,44.723942 
	C141.473282,51.033012 139.921997,53.272141 134.568802,54.262691 
	C128.172440,55.446274 124.358810,53.466373 122.700417,46.891365 
	C125.470749,47.853931 127.518547,48.740540 129.656311,49.248676 
	C131.163651,49.606972 132.799164,49.546642 134.363068,49.447186 
	C134.685791,49.426662 135.278168,47.986443 135.182236,47.910191 
	C134.111557,47.059189 132.937088,46.336445 131.773376,45.606541 
	C131.496857,45.433098 131.165970,45.310406 130.844070,45.250641 
	C126.631630,44.468594 122.722549,42.962303 123.233711,37.830261 
	C123.603760,34.115021 126.575577,32.303528 130.284103,31.982193 
	C136.808182,31.416897 139.349014,32.949245 140.664291,38.169384 
	C136.881958,42.094727 132.785309,32.542015 128.542938,38.561764 
	C132.810577,40.608006 136.710251,42.477802 140.763275,44.723942 
z"/>
<path fill="#DBE3EA" opacity="1.000000" stroke="none" 
	d="
M151.992569,31.931488 
	C153.513016,32.856491 154.626389,33.682789 155.739761,34.509087 
	C154.450851,35.625427 153.161942,36.741764 151.116089,38.513702 
	C151.116089,39.809574 150.743027,42.371231 151.238968,44.751850 
	C151.608459,46.525448 153.111694,48.059250 154.092285,49.710377 
	C154.782791,50.873062 155.443558,52.053421 156.270401,53.491653 
	C147.337646,54.914822 145.909088,53.571182 145.428680,45.771675 
	C145.224548,42.457405 147.838028,38.005104 142.550980,35.952324 
	C142.257111,35.838223 142.426620,33.432980 142.992859,32.445248 
	C143.969925,30.740913 145.428513,29.312626 147.204453,27.130260 
	C147.543991,27.130260 149.013733,27.130260 150.681519,27.130260 
	C150.983597,28.701698 151.284546,30.267239 151.992569,31.931488 
z"/>
<path fill="#DAE2E9" opacity="1.000000" stroke="none" 
	d="
M230.076538,35.808220 
	C231.208405,32.803169 232.434860,30.226908 233.860931,27.231346 
	C234.958008,27.231346 236.564362,27.231346 238.334290,27.231346 
	C239.857849,28.812368 236.939529,34.263592 244.007324,31.423763 
	C243.892303,32.083427 243.777298,32.743088 243.662277,33.402752 
	C242.355988,34.988953 241.049713,36.575153 239.743423,38.161354 
	C239.463486,37.966625 239.183533,37.771896 238.903595,37.577168 
	C238.903595,39.893906 238.938019,42.211296 238.893967,44.527195 
	C238.849411,46.869869 238.577393,49.121967 241.781937,49.938480 
	C242.537979,50.131115 242.823639,52.169853 243.367966,53.459541 
	C235.043808,55.034451 233.044113,53.460518 233.009308,45.840420 
	C233.000198,43.843685 233.359329,41.758762 232.888931,39.879662 
	C232.549484,38.523632 231.116440,37.441372 230.076538,35.808220 
z"/>
<path fill="#FAFAFB" opacity="1.000000" stroke="none" 
	d="
M18.948402,40.955116 
	C18.949722,36.972385 18.965002,33.476982 18.948244,29.981735 
	C18.932993,26.800753 20.349827,24.826899 23.653011,24.806883 
	C33.971943,24.744350 44.291515,24.764961 54.610752,24.789776 
	C57.611305,24.796991 59.309433,26.363125 59.342884,29.384874 
	C59.412880,35.708614 59.400757,42.033638 59.373737,48.357929 
	C59.359974,51.579556 57.711163,53.318325 54.445469,53.325214 
	C44.292530,53.346630 34.139454,53.361732 23.986601,53.327629 
	C20.473577,53.315830 18.886786,51.377663 18.944807,47.933754 
	C18.981251,45.770603 18.949537,43.606300 18.948402,40.955116 
z"/>
<path fill="#1B1F23" opacity="1.000000" stroke="none" 
	d="
M221.376404,48.061607 
	C219.921310,48.891815 218.716263,49.910770 217.597824,49.823215 
	C216.562363,49.742153 215.619598,48.477226 214.636002,47.733635 
	C215.439484,46.843178 216.358948,45.129341 217.023788,45.223011 
	C218.736267,45.464275 222.623093,42.601898 221.376404,48.061607 
z"/>
<path fill="#1B1F23" opacity="1.000000" stroke="none" 
	d="
M106.912964,47.796730 
	C109.063988,46.291832 111.260406,45.199654 114.246597,43.714748 
	C113.136024,50.215454 111.205597,51.024338 106.912964,47.796730 
z"/>
</svg>